# xmcd
#
# Track frame offsets:
#	150
#	18274
#	40209
#	60659
#	80436
#	100455
#	116451
#	137720
#	156948
#	174207
#	192113
#	196106
#	214726
#	233829
#	251550
#	269255
#	286986
#	288174
#	289179
#	291862
#	294456
#
# Disc length: 3953 seconds
#
# Revision: 0
# Processed by: cddbd v1.5.2PL0 Copyright (c) Steve Scherf et al.
# Submitted via: EasyCDDAExtractor 15.3.0.1
#
DISCID=350f6f15
DTITLE=Brad Paisley - Time Well Wasted
DYEAR=1900
DGENRE=country
TTITLE0=The World
TTITLE1=Alcohol
TTITLE2=Waitin' on a Woman
TTITLE3=I'll Take You Back
TTITLE4=She's Everything
TTITLE5=You Need a Man Around Here
TTITLE6=Out in the Parking Lot (feat. Alan Jackson)
TTITLE7=Rainin' You
TTITLE8=Flowers
TTITLE9=Love Is Never-Ending
TTITLE10=The Uncloudy Day
TTITLE11=When I Get Where I'm Going (feat. Dolly Parton)
TTITLE12=Easy Money
TTITLE13=Time Warp
TTITLE14=Time Well Wasted
TTITLE15=Cornography (feat. James Burton and The Kung Pao Buckaroos)
TTITLE16=Out Take 1
TTITLE17=Out Take 2
TTITLE18=Out Take 3
TTITLE19=Out Take 4
TTITLE20=Shatner Says Goodbye
EXTD=
EXTT0=
EXTT1=
EXTT2=
EXTT3=
EXTT4=
EXTT5=
EXTT6=
EXTT7=
EXTT8=
EXTT9=
EXTT10=
EXTT11=
EXTT12=
EXTT13=
EXTT14=
EXTT15=
EXTT16=
EXTT17=
EXTT18=
EXTT19=
EXTT20=
PLAYORDER=
